<svg width="909" height="288" viewBox="0 0 909 288" fill="none" xmlns="http://www.w3.org/2000/svg">
<path d="M65.7 109.5L94.9999 127.1C95.4999 126.2 95.9999 125.4 96.4999 124.5L67.2 107C66.7 107.9 66.2 108.7 65.7 109.5Z" fill="black"/>
<path d="M180.4 91.5C180.4 91 180.4 90.5 180.4 90C180.4 89.5 180.4 89 180.4 88.5H71.5C71.5 89 71.5 89.5 71.5 90C71.5 90.5 71.5 91 71.5 91.5H180.4Z" fill="black"/>
<path d="M94.7 53L65.7 70.4C66.3 71.2 66.7999 72.1 67.2999 73L96.2999 55.6C95.6999 54.8 95.2 53.9 94.7 53Z" fill="black"/>
<path d="M155.7 163.5L184.8 181C185.3 180.1 185.8 179.3 186.4 178.4L157.2 161C156.7 161.9 156.2 162.7 155.7 163.5Z" fill="black"/>
<path d="M180.5 196.5H71.6001C71.6001 197 71.6001 197.5 71.6001 198C71.6001 198.5 71.6001 199 71.6001 199.5H180.5C180.5 199 180.5 198.5 180.5 198C180.5 197.5 180.5 197 180.5 196.5Z" fill="black"/>
<path d="M157.3 235L186.3 217.6C185.7 216.8 185.2 215.9 184.7 215L155.7 232.4C156.3 233.2 156.8 234.1 157.3 235Z" fill="black"/>
<path d="M126 288C145.882 288 162 271.882 162 252C162 232.118 145.882 216 126 216C106.118 216 90 232.118 90 252C90 271.882 106.118 288 126 288Z" fill="#D0CFCD"/>
<path d="M36 234C55.8823 234 72 217.882 72 198C72 178.118 55.8823 162 36 162C16.1177 162 0 178.118 0 198C0 217.882 16.1177 234 36 234Z" fill="#FFA400"/>
<path d="M216 234C235.882 234 252 217.882 252 198C252 178.118 235.882 162 216 162C196.118 162 180 178.118 180 198C180 217.882 196.118 234 216 234Z" fill="#00A0DF"/>
<path d="M216 126C235.882 126 252 109.882 252 90C252 70.1177 235.882 54 216 54C196.118 54 180 70.1177 180 90C180 109.882 196.118 126 216 126Z" fill="#F97FB5"/>
<path d="M36 126C55.8823 126 72 109.882 72 90C72 70.1177 55.8823 54 36 54C16.1177 54 0 70.1177 0 90C0 109.882 16.1177 126 36 126Z" fill="#38D430"/>
<path d="M126.2 179.6C145.972 179.6 162 163.572 162 143.8C162 124.028 145.972 108 126.2 108C106.428 108 90.3999 124.028 90.3999 143.8C90.3999 163.572 106.428 179.6 126.2 179.6Z" fill="#D0CFCD"/>
<path d="M126 72C145.882 72 162 55.8823 162 36C162 16.1177 145.882 0 126 0C106.118 0 90 16.1177 90 36C90 55.8823 106.118 72 126 72Z" fill="#D0CFCD"/>
<path d="M394.7 165.5C388.9 182.2 373.2 197 348.6 197C318.2 197 298.1 174.3 298.1 144.1C298.1 114 318.1 91.1 348.9 91.1C373.3 91.1 389.7 104.5 395.1 123.8H375.3C370.6 113.2 361.3 106.7 348.8 106.7C328.6 106.7 316.9 123.1 316.9 144.2C316.9 165.4 329.2 181.6 349.4 181.6C362.7 181.6 370.8 174.3 375.6 165.6H394.7V165.5Z" fill="black"/>
<path d="M479.4 157.7C479.4 180.8 464.1 197.3 439.9 197.3C415.8 197.3 401.1 180.6 401.1 157.7C401.1 134.2 416.6 117.6 440.2 117.6C463.9 117.6 479.4 134.2 479.4 157.7ZM419 157.6C419 172.9 426.8 182.8 440 182.8C453.3 182.8 461.1 172.8 461.1 157.6C461.1 142.8 453.1 132.2 440 132.2C427 132.2 419 142.7 419 157.6Z" fill="black"/>
<path d="M489 93.1H506.4V195H489V93.1Z" fill="black"/>
<path d="M518.1 93.1H535.5V195H518.1V93.1Z" fill="black"/>
<path d="M547.7 143.6C548.4 129.1 560.2 117.8 579.8 117.8C598.1 117.8 610.7 125.4 610.7 150.9V171.9C610.7 182.3 611.3 189.7 612.4 195.1H596.4C596 193 595.5 189.5 595.5 185.1C591.4 191.2 582.8 196.5 570.7 196.5C555.2 196.5 544 188.4 544 174.3C544 158.6 560.7 152.8 576.5 150.5C582.9 149.6 588.9 148.9 593.8 148.5C593.5 136.1 589.1 131.4 579.3 131.4C569.5 131.4 565 136.4 564.2 143.7H547.7V143.6ZM594.2 160.5L590.3 160.9C571.3 162.9 562.6 165.7 562.6 173.7C562.6 180.5 567.7 184 575.6 184C588.1 184 594 176.3 594 163.6C594.1 163.5 594.1 162 594.2 160.5Z" fill="black"/>
<path d="M620.7 93.1H638.1V114.9C638.1 120 638.1 124.5 638 129.7C642.3 123.6 650.8 117.7 662.5 117.7C684 117.7 697.6 134.7 697.6 157.3C697.6 180.7 683.5 196.7 663 196.7C650.2 196.7 641.6 191 637.2 184.4C637.2 186.3 637.3 188.1 637.3 189.8V194.9H620.8V93.1H620.7ZM637.4 157.1C637.4 171.8 645.4 182.6 658.9 182.6C672 182.6 679.7 171.9 679.7 157.6C679.7 143.3 672 132.1 658.9 132.1C646.4 132.2 637.4 142.7 637.4 157.1Z" fill="black"/>
<path d="M783.2 157.7C783.2 180.8 767.9 197.3 743.7 197.3C719.6 197.3 704.9 180.6 704.9 157.7C704.9 134.2 720.4 117.6 744 117.6C767.6 117.6 783.2 134.2 783.2 157.7ZM722.7 157.6C722.7 172.9 730.5 182.8 743.7 182.8C757 182.8 764.8 172.8 764.8 157.6C764.8 142.8 756.8 132.2 743.7 132.2C730.7 132.2 722.7 142.7 722.7 157.6Z" fill="black"/>
<path d="M808.5 120.1V125.2C808.5 126.9 808.5 128.6 808.4 130.2C811 122.6 818 118.4 826.5 118.4C828.4 118.4 829.6 118.5 830.6 118.7V135.2C829.3 134.8 827.3 134.6 825.6 134.6C812.1 134.6 809.6 144.3 809.6 159.7V195H792.2V133.5C792.2 128.8 792.2 124.5 792.1 120H808.5V120.1Z" fill="black"/>
<path d="M840.8 117.6C840.8 103.1 852.8 91.1 872.3 91.1C891.8 91.1 903.8 103.1 903.8 117.8C903.8 127.6 898.8 135.2 890.4 139.9C901.5 145 908.2 154.3 908.2 166.6C908.2 185.1 893.4 197.4 872.3 197.4C851.2 197.4 836.5 185.1 836.5 166.6C836.5 154.3 843.1 144.9 854.2 139.9C846 134.9 840.8 127.8 840.8 117.6ZM854.5 165.2C854.5 174.8 861.2 182.5 872.3 182.5C883.1 182.5 890 174.9 890 165.2C890 154.9 883 147.7 872.3 147.7C861.4 147.7 854.5 155 854.5 165.2ZM857.7 119.8C857.7 127.4 863.3 133.5 872.2 133.5C881.2 133.5 886.7 127.4 886.7 119.8C886.7 112.4 881.1 106.4 872.2 106.4C863.1 106.4 857.7 112.4 857.7 119.8Z" fill="black"/>
</svg>
